<?xml version="1.0" encoding="UTF-8"?>
<!-- Generated by Pixelmator Pro 3.6.3 -->
<svg width="256" height="256" viewBox="0 0 256 256" xmlns="http://www.w3.org/2000/svg">
    <g id="SvgjsG14158">
        <linearGradient id="linearGradient1" x1="-7.664671" y1="204.886228" x2="275.449102" y2="204.886228" gradientUnits="userSpaceOnUse">
            <stop offset="0" stop-color="#0351ab" stop-opacity="1"/>
            <stop offset="1" stop-color="#078dee" stop-opacity="1"/>
        </linearGradient>
        <path id="UniAPI" fill="url(#linearGradient1)" fill-rule="evenodd" stroke="none" d="M 255.714386 175.650574 L 255.714386 234.347305 L 243.699265 234.347305 L 243.699265 175.650574 Z M 191.423706 234.347305 L 191.423706 175.650574 L 214.311493 175.650574 C 218.776169 175.650574 222.571045 176.497528 225.69632 178.191467 C 228.821579 179.885406 231.204849 182.222748 232.846268 185.203552 C 234.487686 188.184357 235.30838 191.605011 235.30838 195.465637 C 235.30838 199.352509 234.474564 202.773163 232.806885 205.727722 C 231.139221 208.682266 228.716522 210.993347 225.538742 212.661026 C 222.360947 214.328705 218.526642 215.162537 214.035751 215.162537 L 203.438812 215.162537 L 203.438812 234.347305 Z M 203.438812 205.471664 L 212.105453 205.471664 C 215.782211 205.471664 218.500366 204.539352 220.259964 202.674698 C 222.019562 200.810059 222.899338 198.407059 222.899338 195.465637 C 222.899338 192.497955 222.019562 190.108093 220.259964 188.295959 C 218.500366 186.483841 215.769089 185.577805 212.06604 185.577805 L 203.438812 185.577805 Z M 127.80275 234.347305 L 147.854172 175.650574 L 163.61171 175.650574 L 184.175247 234.347305 L 170.82077 234.347305 L 166.290482 220.717056 L 145.451157 220.717056 L 141.078461 234.347305 Z M 148.445084 211.301941 L 163.178375 211.301941 L 161.405655 206.023163 C 160.460205 203.029236 159.51474 199.785843 158.56929 196.292908 C 157.62384 192.799988 156.639008 189.057587 155.614761 185.065674 C 154.643036 189.110123 153.710739 192.878754 152.81781 196.371704 C 151.924866 199.864624 151.031952 203.081757 150.139023 206.023163 Z M 109.0513 234.347305 L 109.0513 190.305054 L 120.869446 190.305054 L 120.869446 234.347305 Z M 114.960365 184.553558 C 113.174515 184.553558 111.651299 183.962662 110.390701 182.780853 C 109.130081 181.599014 108.499794 180.167725 108.499794 178.486923 C 108.499794 176.806107 109.130081 175.374817 110.390701 174.192993 C 111.651299 173.011169 113.174515 172.420273 114.960365 172.420273 C 116.746231 172.420273 118.276016 173.011169 119.549744 174.192993 C 120.823486 175.374817 121.460358 176.806107 121.460358 178.486923 C 121.460358 180.167725 120.823486 181.599014 119.549744 182.780853 C 118.276016 183.962662 116.746231 184.553558 114.960365 184.553558 Z M 70.642365 208.859528 L 70.642365 234.347305 L 58.82423 234.347305 L 58.82423 190.305054 L 69.972679 190.305054 L 70.130241 199.405014 C 71.364586 196.332291 73.111023 193.955551 75.369614 192.27475 C 77.628212 190.593933 80.451401 189.75354 83.839279 189.75354 C 88.408989 189.75354 92.072563 191.224213 94.830154 194.165649 C 97.58773 197.107056 98.966499 201.164581 98.966499 206.338318 L 98.966499 234.347305 L 87.148361 234.347305 L 87.148361 208.38681 C 87.148361 205.655487 86.445839 203.515106 85.040787 201.965607 C 83.635735 200.416107 81.685768 199.641373 79.190811 199.641373 C 76.669601 199.641373 74.614578 200.448944 73.025688 202.064102 C 71.436806 203.67926 70.642365 205.944366 70.642365 208.859528 Z M 24.275883 235.174576 C 19.391022 235.174576 15.136536 234.281662 11.51229 232.495804 C 7.888045 230.709946 5.071415 228.20845 3.062327 224.991287 C 1.053233 221.774109 0.048697 218.025162 0.048697 213.744354 L 0.048697 175.650574 L 12.063807 175.650574 L 12.063807 212.759521 C 12.063807 216.173645 13.173382 218.99028 15.392576 221.209473 C 17.611771 223.42868 20.572845 224.538254 24.275883 224.538254 C 27.952646 224.538254 30.900587 223.42868 33.119781 221.209473 C 35.338974 218.99028 36.448559 216.173645 36.448559 212.759521 L 36.448559 175.650574 L 48.503059 175.650574 L 48.503059 213.744354 C 48.503059 218.025162 47.485394 221.774109 45.450039 224.991287 C 43.41468 228.20845 40.584923 230.709946 36.960674 232.495804 C 33.33643 234.281662 29.108208 235.174576 24.275883 235.174576 Z"/>
        <linearGradient id="linearGradient2" x1="109.75535" y1="20.907136" x2="219.031251" y2="20.907136" gradientUnits="userSpaceOnUse">
            <stop offset="1e-05" stop-color="#078dee" stop-opacity="1"/>
            <stop offset="1" stop-color="#0351ab" stop-opacity="1"/>
        </linearGradient>
        <path id="path2" fill="url(#linearGradient2)" stroke="none" d="M 164.393295 20.907135 C 149.779205 20.907135 136.499084 26.735077 126.682793 36.191223 C 126.185913 36.669434 125.69725 37.15596 125.218918 37.652878 C 122.445786 40.532562 120.002548 43.726181 117.901558 47.156845 C 117.901558 47.156845 117.883011 47.150604 117.883011 47.150604 C 117.883011 47.150604 114.334625 52.589752 112.775894 57.981094 L 112.775894 58.014343 C 110.831612 63.657242 109.755348 69.703522 109.755348 76.005508 C 109.755348 83.954254 111.446037 91.509995 114.464523 98.344284 C 117.169617 94.851242 119.23555 90.846741 120.546867 86.511642 C 121.773636 83.461487 122.967422 79.93103 123.878746 76.005508 C 124.823051 71.934479 127.076614 64.609512 130.068314 58.806519 C 131.56723 55.600403 132.944519 53.920425 134.981598 51.53978 C 135.426941 50.951355 135.962997 50.43988 136.461975 49.897217 C 143.432953 42.318573 153.35643 37.540604 164.393295 37.540604 C 185.425812 37.540604 202.536789 54.795761 202.536789 76.005508 C 202.536789 97.215302 185.425812 114.470444 164.393295 114.470444 C 153.35643 114.470444 143.432953 109.692474 136.461975 102.113831 C 133.878525 107.16626 130.57756 111.779968 126.682793 115.821915 C 136.499084 125.275955 149.779205 131.103912 164.393295 131.103912 C 194.520462 131.103912 219.03125 106.386581 219.03125 76.005508 C 219.03125 45.624481 194.520462 20.907135 164.393295 20.907135 Z"/>
        <linearGradient id="linearGradient3" x1="31.40659" y1="20.907136" x2="140.682491" y2="20.907136" gradientUnits="userSpaceOnUse">
            <stop offset="1e-05" stop-color="#078dee" stop-opacity="1"/>
            <stop offset="1" stop-color="#0351ab" stop-opacity="1"/>
        </linearGradient>
        <path id="path3" fill="url(#linearGradient3)" stroke="none" d="M 125.478706 114.069153 C 128.140503 111.262253 130.503342 108.174683 132.53627 104.856293 L 132.55072 104.862534 C 132.55072 104.862534 136.101151 99.421295 137.659882 94.032059 L 137.659882 94.007111 C 139.604172 88.360046 140.68248 82.309616 140.68248 76.005508 C 140.68248 68.11293 139.012421 60.613327 136.035187 53.820618 L 136.028976 53.666763 C 136.028976 53.666763 136.004227 53.702118 135.991882 53.71875 C 135.985687 53.702118 135.979492 53.683395 135.971252 53.668854 C 135.284668 54.764587 134.624893 55.779205 133.991913 56.739792 C 132.567215 59.118393 131.363098 61.611328 130.424988 64.218628 C 129.00647 67.547409 127.594124 71.524872 126.554977 76.007599 C 125.645721 79.924774 123.48494 86.840149 120.689133 92.524658 C 119.05204 96.119553 117.489189 97.982513 115.532532 100.375656 C 115.109863 100.893372 114.448029 101.604446 113.971748 102.115921 C 107.002838 109.692474 97.079346 114.470444 86.04454 114.470444 C 65.012024 114.470444 47.90107 97.215302 47.90107 76.005508 C 47.90107 54.795761 65.012024 37.540604 86.04454 37.540604 C 97.079346 37.540604 107.004898 42.318573 113.975868 49.897217 C 116.559326 44.844803 119.862335 40.231079 123.755035 36.191223 C 113.940819 26.735077 100.658646 20.907135 86.04454 20.907135 C 55.917385 20.907135 31.40659 45.624481 31.40659 76.005508 C 31.40659 106.386581 55.917385 131.103912 86.04454 131.103912 C 100.576172 131.103912 113.788254 125.338333 123.585968 115.973694 C 123.585968 115.975769 123.58802 115.977844 123.58802 115.977844 C 123.61689 115.950821 123.656075 115.911316 123.686996 115.882202 C 123.709679 115.859329 123.732353 115.838531 123.755035 115.819839 C 123.755035 115.819839 123.755035 115.817764 123.752975 115.817764 C 124.179771 115.403992 124.767387 114.813507 125.214798 114.356094 C 125.216858 114.356094 125.218918 114.356094 125.218918 114.35817 C 125.247795 114.326981 125.27253 114.295792 125.301392 114.264603 C 125.363251 114.20224 125.43541 114.129456 125.486954 114.075394 C 125.482819 114.075394 125.480766 114.071228 125.478706 114.069153 Z"/>
    </g>
</svg>
