<?xml version="1.0" encoding="UTF-8"?>
<svg xmlns="http://www.w3.org/2000/svg" xmlns:xlink="http://www.w3.org/1999/xlink" width="240px" height="240px" viewBox="0 0 240 240" version="1.1">
<g id="surface1">
<path style=" stroke:none;fill-rule:evenodd;fill:rgb(100%,38.823529%,38.823529%);fill-opacity:1;" d="M 60 154.949219 L 60 180 L -0.0507812 119.949219 L 12.53125 107.453125 L 60 154.953125 Z M 85.050781 180 L 60 180 L 120.054688 240.050781 L 132.585938 227.523438 L 85.046875 180 Z M 227.484375 132.515625 L 240 120 L 120 0 L 107.484375 12.515625 L 154.898438 60 L 126.238281 60 L 93.140625 26.929688 L 80.609375 39.445312 L 101.21875 60.054688 L 86.875 60.054688 L 86.875 153.179688 L 180 153.179688 L 180 138.851562 L 200.609375 159.460938 L 213.125 146.929688 L 180 113.734375 L 180 85.074219 Z M 66.265625 53.734375 L 53.75 66.265625 L 67.179688 79.695312 L 79.695312 67.164062 Z M 172.835938 160.304688 L 160.359375 172.820312 L 173.789062 186.25 L 186.320312 173.734375 Z M 39.390625 80.605469 L 26.875 93.125 L 60 126.265625 L 60 101.203125 Z M 138.78125 180 L 113.734375 180 L 146.875 213.125 L 159.390625 200.609375 Z M 138.78125 180 "/>
</g>
</svg>
